<?xml version="1.0" ?><svg style="enable-background:new 0 0 32 32;" version="1.1" viewBox="0 0 32 32" xml:space="preserve" xmlns="http://www.w3.org/2000/svg" xmlns:xlink="http://www.w3.org/1999/xlink"><style type="text/css">
	.st0{fill:#222A30;}
	.st1{fill:none;stroke:#222A30;stroke-width:1.8761;stroke-linejoin:round;stroke-miterlimit:10;}
	.st2{fill:#171715;}
	.st3{fill-rule:evenodd;clip-rule:evenodd;fill:#222A30;}
</style><g id="Layer_1"/><g id="icons"><path class="st0" d="M16,2C8.3,2,2,8.3,2,16c0,7.7,6.3,14,14,14c7.7,0,14-6.3,14-14C30,8.3,23.7,2,16,2z M22.3,18.7   c-1.1,0.9-2.6,1.4-4.3,1.4c-0.5,0-1,0-1.5-0.1c-0.1,0-0.3,0.1-0.3,0.2v2.3c-0.1,0.9-0.5,1.7-1.2,2.3c-0.5,0.4-1.2,0.6-1.8,0.6   c-0.2,0-0.4,0-0.6-0.1C11.5,25,10.8,24,11,22.8l0.1-0.3c0-0.2,0.3-0.4,0.5-0.3l1.6,0.3c0,0,0.1,0,0.2,0c0,0,0.1-0.1,0.1-0.2v-9.8   c0-0.4,0.3-0.8,0.8-0.8h1.3c0.4,0,0.8,0.3,0.8,0.8V17c0,0.1,0.1,0.2,0.2,0.2c1.8,0.4,3.2,0.1,4.2-0.6c1-0.8,1.3-2.2,1.3-3.1   c0-1-0.6-2-1.6-2.8c-1.1-0.9-2.7-1.3-4.3-1.3c-3.2,0-5.7,1.9-5.7,4.1c0,1.2,0.1,1.9,0.9,2.8c0.1,0.1,0.1,0.2,0.1,0.3   c0,0.1,0,0.2-0.1,0.3c-1,1-2.7,0.6-3.2-0.7c-0.3-0.9-0.4-1.7-0.4-2.7c0-1.9,0.9-3.6,2.6-4.9c1.6-1.2,3.7-1.9,5.9-1.9   s4.3,0.7,5.9,1.9c1.7,1.3,2.7,3,2.7,4.9C24.5,15.7,23.7,17.5,22.3,18.7z" id="p"/></g></svg>